<svg xmlns="http://www.w3.org/2000/svg" viewBox="0 0 400 300" width="406" height="306" class="illustration styles_illustrationTablet__1DWOa"><g id="_412_coffee_outline" data-name="#412_coffee_outline"><path d="M147.14,186.2a5.6,5.6,0,0,1-1.2-.14c-26-5.95-40.76-23.59-45.86-38.11-3.87-11-2.91-21.29,2.62-28.27,14.35-18.13,46.07,2.8,47.41,3.69a5.35,5.35,0,0,1-6,8.9c-6.41-4.28-26.26-14.56-33.07-6-3.16,4-3.5,10.74-.92,18.08,4.16,11.83,16.37,26.24,38.16,31.23a5.35,5.35,0,0,1-1.19,10.57Z" fill="#68e1fd"></path><path d="M147.14,187.2a6.26,6.26,0,0,1-1.42-.17c-26.43-6-41.39-24-46.59-38.75-4-11.31-3-22,2.78-29.22,14.91-18.84,47.38,2.56,48.76,3.48a6.35,6.35,0,0,1-7.06,10.56c-7.82-5.21-25.87-13.58-31.74-6.16-2.94,3.71-3.22,10.12-.76,17.13,4.07,11.58,16,25.69,37.44,30.58a6.35,6.35,0,0,1-1.41,12.55Zm-28.07-73.9c-5.89,0-11.5,1.83-15.59,7C98.17,127,97.27,137,101,147.62c5,14.27,19.51,31.6,45.15,37.46a4,4,0,0,0,1,.12,4.36,4.36,0,0,0,1-8.6c-22.19-5.07-34.64-19.79-38.88-31.87-2.7-7.66-2.3-14.78,1.07-19,3.19-4,9.33-4.78,17.77-2.19a70.65,70.65,0,0,1,16.65,7.93,4.35,4.35,0,0,0,4.84-7.23C148.63,123.59,133,113.3,119.07,113.3Z" fill="#093f68"></path><path d="M137.74,102.76H289.63a0,0,0,0,1,0,0v40.68a75.95,75.95,0,0,1-75.95,75.95h0a75.95,75.95,0,0,1-75.95-75.95V102.76a0,0,0,0,1,0,0Z" fill="#68e1fd"></path><path d="M213.69,220.38a77,77,0,0,1-76.95-76.95V102.76a1,1,0,0,1,1-1H289.63a1,1,0,0,1,1,1v40.67A77,77,0,0,1,213.69,220.38ZM138.74,103.76v39.67a75,75,0,0,0,74.95,74.95h0a75,75,0,0,0,74.94-74.95V103.76Z" fill="#093f68"></path><path d="M125.11,219.38H302.26a0,0,0,0,1,0,0v0a9.48,9.48,0,0,1-9.48,9.48H134.59a9.48,9.48,0,0,1-9.48-9.48v0a0,0,0,0,1,0,0Z" fill="#68e1fd"></path><path d="M292.79,229.86H134.59a10.49,10.49,0,0,1-10.48-10.48,1,1,0,0,1,1-1H302.26a1,1,0,0,1,1,1A10.49,10.49,0,0,1,292.79,229.86Zm-166.62-9.48a8.49,8.49,0,0,0,8.42,7.48h158.2a8.48,8.48,0,0,0,8.41-7.48Z" fill="#093f68"></path><ellipse cx="272.36" cy="202.23" rx="15.97" ry="26.03" transform="translate(12.66 420.47) rotate(-76.64)" fill="#ad7972"></ellipse><path d="M278.07,219.89a41.52,41.52,0,0,1-9.63-1.16,36.69,36.69,0,0,1-17.3-9.06c-4.34-4.33-6.14-9.19-5.07-13.69s4.86-8,10.68-9.94c5.66-1.86,12.59-2,19.53-.32,14.5,3.44,24.54,13.65,22.38,22.75-1.07,4.5-4.87,8-10.69,9.95A32,32,0,0,1,278.07,219.89Zm-11.42-33.33a29.84,29.84,0,0,0-9.27,1.38c-5.14,1.68-8.46,4.7-9.37,8.5s.71,8,4.54,11.81,9.77,7,16.35,8.54,13.14,1.46,18.44-.27c5.14-1.69,8.47-4.71,9.37-8.51h0c1.91-8-7.46-17.16-20.89-20.35A40.34,40.34,0,0,0,266.65,186.56Z" fill="#093f68"></path><path d="M296.56,205.16a1,1,0,0,1-.66-.25c-2.58-2.23-12.53-9-32.24-2.33-10.64,3.59-17.37-5.7-17.44-5.79a1,1,0,0,1,.24-1.39,1,1,0,0,1,1.39.23c.24.33,6,8.16,15.17,5.05,20.15-6.79,30.62-.36,34.19,2.72a1,1,0,0,1,.1,1.41A1,1,0,0,1,296.56,205.16Z" fill="#093f68"></path><ellipse cx="246.34" cy="203.41" rx="26.03" ry="15.97" fill="#ad7972"></ellipse><path d="M246.33,220.38c-14.9,0-27-7.61-27-17s12.12-17,27-17,27,7.61,27,17S261.24,220.38,246.33,220.38Zm0-31.93c-13.79,0-25,6.71-25,15s11.23,15,25,15,25-6.71,25-15S260.13,188.45,246.33,188.45Z" fill="#093f68"></path><path d="M230.21,208.07a17.64,17.64,0,0,1-10.56-3.91,1,1,0,0,1-.09-1.4,1,1,0,0,1,1.41-.1c.31.27,7.68,6.56,15.92,1.41,18-11.27,29.71-7.43,33.89-5.26a1,1,0,0,1-.92,1.78c-3-1.58-14.27-5.85-31.91,5.18A14.38,14.38,0,0,1,230.21,208.07Z" fill="#093f68"></path><path d="M199.69,90.81a1,1,0,0,1-.29,0,1,1,0,0,1-.66-1.25c1.87-6.19.59-8.78-1.19-12.36a32.41,32.41,0,0,1-2.74-7c-2.25-9,4-13.52,4.31-13.71a1,1,0,0,1,1.15,1.63c-.23.17-5.43,4-3.52,11.6a30.16,30.16,0,0,0,2.59,6.58c1.83,3.69,3.42,6.88,1.31,13.83A1,1,0,0,1,199.69,90.81Z" fill="#dfeaef"></path><path d="M215.39,90.81a.93.93,0,0,1-.29,0,1,1,0,0,1-.67-1.25c1.88-6.19.59-8.78-1.19-12.36a32.41,32.41,0,0,1-2.74-7c-2.25-9,4.05-13.52,4.31-13.71A1,1,0,1,1,216,58.08c-.22.17-5.43,4-3.52,11.6A30.68,30.68,0,0,0,215,76.26c1.84,3.69,3.42,6.88,1.31,13.83A1,1,0,0,1,215.39,90.81Z" fill="#dfeaef"></path><path d="M231.08,90.81a1,1,0,0,1-.29,0,1,1,0,0,1-.67-1.25c1.88-6.19.6-8.78-1.18-12.36a32.91,32.91,0,0,1-2.75-7c-2.25-9,4.05-13.52,4.32-13.71a1,1,0,1,1,1.15,1.63c-.23.17-5.43,4-3.52,11.6a29.67,29.67,0,0,0,2.59,6.58c1.83,3.69,3.42,6.88,1.31,13.83A1,1,0,0,1,231.08,90.81Z" fill="#dfeaef"></path></g></svg>