<svg xmlns="http://www.w3.org/2000/svg" viewBox="0 0 400 300" width="406" height="306" class="illustration styles_illustrationTablet__1DWOa"><g id="_412_coffee_flatline" data-name="#412_coffee_flatline"><ellipse cx="201.51" cy="185.09" rx="123.85" ry="71.52" fill="#231f20"></ellipse><path d="M201.51,257.05c-68.53,0-124.29-32.28-124.29-72s55.76-72,124.29-72,124.3,32.28,124.3,72S270.05,257.05,201.51,257.05Zm0-143c-68,0-123.4,31.88-123.4,71.07s55.36,71.07,123.4,71.07,123.41-31.88,123.41-71.07S269.56,114,201.51,114Z" fill="#231f20"></path><ellipse cx="201.51" cy="183.07" rx="123.85" ry="71.52" fill="#fff"></ellipse><path d="M201.51,255.14c-68.59,0-124.4-32.33-124.4-72.07S132.92,111,201.51,111s124.41,32.33,124.41,72.07S270.11,255.14,201.51,255.14Zm0-143c-68,0-123.29,31.84-123.29,71s55.31,71,123.29,71,123.3-31.84,123.3-71S269.5,112.11,201.51,112.11Z" fill="#231f20"></path><path d="M201.51,245.54c-59.46,0-107.83-28-107.83-62.47s48.37-62.46,107.83-62.46,107.84,28,107.84,62.46S261,245.54,201.51,245.54Zm0-124c-59,0-106.92,27.62-106.92,61.55s48,61.55,106.92,61.55S308.44,217,308.44,183.07,260.48,121.52,201.51,121.52Z" fill="#d1d3d4"></path><path d="M143.08,159s-18.13,2.51-33.57-6.21-18.62-20.14-16.11-27,15.11-11.75,27-5.71S121.6,108,107,108.84s-29.71,6.54-29,15.77S85,149.45,96.93,157s29.37,13.09,38.93,11.92,15.95,0,13.76-4.7a14,14,0,0,0-7-6.55" fill="#231f20"></path><path d="M133.16,169.55c-9.79,0-25.35-5.09-36.49-12.14C83.84,149.27,78.09,133,77.48,124.65a9.12,9.12,0,0,1,2.5-6.8c4.46-5.08,15-8.81,27-9.49,9.26-.53,17,6.31,18.69,10.29.65,1.53.3,2.31-.11,2.7-.86.8-2.66.52-5.34-.84a23.11,23.11,0,0,0-18.85-1.25c-3.76,1.48-6.49,3.92-7.51,6.69-2.63,7.2,1.27,18.17,15.9,26.44,15.12,8.54,33.08,6.17,33.26,6.15a.48.48,0,1,1,.14,1c-.19,0-18.47,2.44-33.87-6.27-15.13-8.55-19.1-20-16.33-27.6,1.11-3,4-5.67,8-7.25a24.09,24.09,0,0,1,19.64,1.28c2.54,1.29,3.86,1.36,4.25,1s.21-.85-.12-1.62c-1.57-3.65-9-10.2-17.74-9.71-11.7.67-22,4.26-26.33,9.16a8.24,8.24,0,0,0-2.26,6.1c.64,8.76,6.88,24.49,18.75,32,12.08,7.66,29.41,13,38.61,11.84,2.4-.29,4.57-.44,6.49-.57,3.64-.25,6.51-.44,7.14-1.5.25-.42.17-1.06-.24-2a13.64,13.64,0,0,0-6.79-6.3.48.48,0,0,1-.27-.62.48.48,0,0,1,.62-.28,14.4,14.4,0,0,1,7.31,6.8,3,3,0,0,1,.2,2.84c-.89,1.5-3.68,1.68-7.9,2-1.91.13-4.07.27-6.44.56A21.71,21.71,0,0,1,133.16,169.55Z" fill="#231f20"></path><path d="M130.83,134.18s-5.54-14.77-11.08-23.16S101.63,97.76,91.22,101,69.41,120.58,77,137.37s23.83,29,44.81,32c18.7,2.69,29-.34,29-.34l-3-5.2s-12.1,3.58-32.56-3.52c-19.8-6.88-25.34-16.62-25.68-30S102.71,113,109,113.54c10.24.83,16.11,13.42,19.8,20.81Z" fill="#68e1fd"></path><path d="M136.53,171a103.49,103.49,0,0,1-14.83-1.11c-20.49-3-37.37-15-45.15-32.31a27.56,27.56,0,0,1,.06-23c3.08-6.8,8.76-12.32,14.48-14.07,10.21-3.13,23.24,1.47,29,10.25,5.51,8.34,11.07,23.1,11.13,23.25a.47.47,0,0,1,0,.4.45.45,0,0,1-.34.2l-2,.17a.45.45,0,0,1-.44-.25l-.43-.87c-3.75-7.53-9.41-18.9-19-19.69-3.38-.28-10,.85-14.53,5.08A14.37,14.37,0,0,0,90,130.31c.27,10.9,3.54,22,25.38,29.63,20,7,32.16,3.55,32.28,3.51a.46.46,0,0,1,.52.21l3,5.2a.44.44,0,0,1,0,.39.42.42,0,0,1-.29.26C150.85,169.53,145.79,171,136.53,171Zm-38.6-70.54a22.29,22.29,0,0,0-6.58.95c-5.48,1.68-10.95,7-13.92,13.58a26.65,26.65,0,0,0-.07,22.22c7.66,17,24.28,28.89,44.47,31.8,16,2.3,25.9.38,28.29-.18l-2.56-4.4c-2.13.5-14,2.8-32.49-3.62-18.06-6.28-25.59-15.1-26-30.45a15.18,15.18,0,0,1,4.73-11.92,21.32,21.32,0,0,1,15.22-5.32c10.09.83,15.89,12.47,19.73,20.18l.3.6,1.12-.09c-1.07-2.76-6-15.18-10.82-22.52C115,104.6,106.25,100.43,97.93,100.43Z" fill="#231f20"></path><path d="M284.55,110.22c0,5.41-2.68,15.64-7.47,27.63-5.89,14.74-15,32.14-26.22,46.59a78.41,78.41,0,0,1-92.38,0c-11.24-14.45-20.33-31.85-26.22-46.59-4.8-12-7.48-22.22-7.48-27.63,0-19.78,35.77-35.81,79.89-35.81S284.55,90.44,284.55,110.22Z" fill="#231f20"></path><path d="M204.67,199.94a81.74,81.74,0,0,1-46.45-15.13l-.09-.09c-13.63-17.52-22.32-36.78-26.29-46.7-4.69-11.77-7.5-22.16-7.5-27.8,0-20,36-36.26,80.33-36.26S285,90.23,285,110.22c0,5.64-2.81,16-7.51,27.8-4,9.92-12.66,29.18-26.28,46.7l-.09.09A81.76,81.76,0,0,1,204.67,199.94Zm-45.88-15.82a78,78,0,0,0,91.76,0c13.53-17.42,22.17-36.56,26.12-46.43,4.66-11.67,7.44-21.93,7.44-27.47,0-19.5-35.64-35.37-79.44-35.37s-79.44,15.87-79.44,35.37c0,5.54,2.78,15.8,7.44,27.47C136.62,147.56,145.25,166.7,158.79,184.12Zm92.07.32h0Z" fill="#231f20"></path><path d="M302.73,83.66c0,6.65-3.29,19.2-9.17,33.92-7.24,18.09-18.39,39.46-32.19,57.2-15.47,10.88-35.2,18.47-56.7,18.47s-41.24-7.59-56.7-18.47c-13.8-17.74-25-39.11-32.19-57.2-5.88-14.72-9.17-27.27-9.17-33.92,0-24.28,43.9-44,98.06-44S302.73,59.38,302.73,83.66Z" fill="#68e1fd"></path><path d="M204.67,193.7c-19.72,0-39.95-6.59-57-18.56a.28.28,0,0,1-.1-.09c-16.71-21.49-27.38-45.13-32.24-57.3-5.77-14.43-9.21-27.17-9.21-34.09,0-24.48,44.19-44.41,98.51-44.41s98.51,19.93,98.51,44.41c0,6.92-3.44,19.66-9.21,34.09-4.87,12.17-15.53,35.81-32.25,57.3a.26.26,0,0,1-.09.09C244.62,187.11,224.39,193.7,204.67,193.7Zm-56.39-19.25c16.85,11.83,36.87,18.35,56.39,18.35s39.54-6.52,56.39-18.35c16.62-21.39,27.23-44.91,32.08-57,5.73-14.33,9.14-26.95,9.14-33.76,0-24-43.79-43.51-97.61-43.51s-97.62,19.52-97.62,43.51c0,6.81,3.42,19.43,9.15,33.76C121,129.54,131.65,153.05,148.28,174.45Zm113.09.33h0Z" fill="#231f20"></path><ellipse cx="204.67" cy="83.66" rx="98.06" ry="43.96" fill="#fff"></ellipse><path d="M204.67,128.15c-54.37,0-98.6-20-98.6-44.49s44.23-44.49,98.6-44.49,98.6,20,98.6,44.49S259,128.15,204.67,128.15Zm0-87.91c-53.78,0-97.53,19.48-97.53,43.42s43.75,43.42,97.53,43.42S302.2,107.6,302.2,83.66,258.45,40.24,204.67,40.24Z" fill="#231f20"></path><path d="M294.54,83.66a19.09,19.09,0,0,1-4,11.33c-11.36,15.55-45.49,26.85-85.85,26.85S130.18,110.54,118.82,95a19.09,19.09,0,0,1-4-11.33c0-21.09,40.24-38.18,89.87-38.18S294.54,62.57,294.54,83.66Z" fill="#d1d3d4"></path><path d="M204.67,122.28c-39.76,0-74.4-10.86-86.21-27a19.55,19.55,0,0,1-4.11-11.59c0-21.3,40.52-38.63,90.32-38.63S295,62.36,295,83.66a19.55,19.55,0,0,1-4.11,11.59C279.07,111.42,244.42,122.28,204.67,122.28Zm0-76.36c-49.31,0-89.43,16.93-89.43,37.74a18.68,18.68,0,0,0,3.94,11.07c11.65,16,46,26.66,85.49,26.66s73.84-10.71,85.49-26.66a18.68,18.68,0,0,0,3.94-11.07C294.1,62.85,254,45.92,204.67,45.92Z" fill="#231f20"></path><path d="M290.52,95c-11.36,15.55-45.49,26.85-85.85,26.85S130.18,110.54,118.82,95c11.36-15.56,45.5-26.86,85.85-26.86S279.16,79.43,290.52,95Z" fill="#231f20"></path><path d="M204.67,122.32c-39.77,0-74.42-10.87-86.24-27a.48.48,0,0,1,0-.56c11.81-16.19,46.47-27.06,86.24-27.06s74.42,10.87,86.24,27.06a.48.48,0,0,1,0,.56C279.09,111.45,244.44,122.32,204.67,122.32ZM119.42,95c11.84,15.78,46,26.37,85.25,26.37S278.08,110.77,289.92,95c-11.84-15.79-46-26.38-85.25-26.38S131.26,79.2,119.42,95Z" fill="#231f20"></path><path d="M352.46,117.12a8.8,8.8,0,0,0-7.67-2.37,19.3,19.3,0,0,0-7.84,3.38c-7.05,4.65-12.45,10.88-18,17.07s-11,12.44-16.41,18.69c-11.4,13.13-15.4,23.56-22.59,28.81s-15.28,2.79-30.54,9.89-24.95,13.34-19.64,25.1c5.92,13.1,23.35,12.23,35.91,7.2,12.76-5.11,20.39-14.11,21.45-21.09s-2.48-10.29.16-16.7c1-2.4,7.83-16.18,33.2-36.07l2.56-2c7-5.5,14-11,20.84-16.66,3.92-3.21,13.94-9,8.78-15Z" fill="#fff"></path><path d="M249.09,228.81c-8.57,0-16.3-3.08-19.83-10.9-5.71-12.65,5.63-19.17,19.89-25.8a73,73,0,0,1,18.69-5.74c4.65-.89,8.33-1.6,11.76-4.1,3.85-2.81,6.79-7.16,10.51-12.67a154.85,154.85,0,0,1,12-16.06l2.17-2.49c4.64-5.34,9.43-10.86,14.24-16.21l1.08-1.2c5.11-5.69,10.4-11.57,17-16a20.1,20.1,0,0,1,8.07-3.46,9.35,9.35,0,0,1,8.13,2.54h0l.19.21a5.78,5.78,0,0,1,1.54,4.49c-.43,3.86-5,7.27-8.35,9.76-.76.57-1.46,1.09-2,1.55-7.14,5.85-14.24,11.47-20.85,16.67l-2.56,2c-26.21,20.56-32.41,34.35-33,35.85-1.43,3.46-1,5.92-.48,8.78a22,22,0,0,1,.35,7.81c-1.42,9.34-12.29,17.69-21.78,21.49A45.93,45.93,0,0,1,249.09,228.81Zm97.13-113.63a10.47,10.47,0,0,0-1.36.09,19.21,19.21,0,0,0-7.62,3.3c-6.54,4.32-11.54,9.89-16.84,15.79l-1.08,1.2c-4.81,5.34-9.6,10.85-14.23,16.19l-2.17,2.49a152.48,152.48,0,0,0-11.92,16c-3.78,5.59-6.77,10-10.77,12.93-3.63,2.65-7.4,3.37-12.19,4.29a72.29,72.29,0,0,0-18.44,5.66c-16.65,7.74-24.22,13.64-19.37,24.39,5.53,12.24,22.13,12.17,35.22,6.92s20.17-14.41,21.12-20.67a21,21,0,0,0-.34-7.45c-.52-2.9-1-5.63.54-9.38.63-1.53,6.93-15.55,33.36-36.28l2.56-2c6.6-5.2,13.7-10.81,20.83-16.65.58-.48,1.3-1,2.07-1.59,3.19-2.37,7.55-5.62,7.93-9a4.72,4.72,0,0,0-1.29-3.68l-.16-.18h0A8,8,0,0,0,346.22,115.18Z" fill="#231f20"></path><path d="M281.39,194c-.75-.71-33.2,26.31-50.17,21.81,0,0-1.91,5.61,13.23,8.37s29.1-6.25,34.83-11.93S286.65,198.94,281.39,194Z" fill="#d1d3d4"></path><path d="M185.53,193.75c-2.56,6.79-10.12,13.66-20.5,11.9-19.47-3.32-21.3-20-18.73-26.74s12.09-5.7,22.93-1.6S188.1,187,185.53,193.75Z" fill="#d1d3d4"></path><path d="M168.34,206.35a19.88,19.88,0,0,1-3.38-.29c-10-1.71-14.9-6.87-17.21-10.89-3.33-5.82-3.29-12.59-1.85-16.41,1.27-3.35,4.22-5.08,8.76-5.15,3.8-.07,8.75,1,14.72,3.31,13.15,5,18.87,10.85,16.55,17C183.53,200.24,177.16,206.35,168.34,206.35ZM155,174.45h-.28c-4.16.06-6.84,1.61-8,4.61-1.38,3.64-1.4,10.1,1.79,15.69s8.93,9.17,16.62,10.48c10.1,1.72,17.46-4.82,20-11.63,2.68-7.1-7.25-12.56-16.06-15.89C163.36,175.54,158.61,174.45,155,174.45Z" fill="#231f20"></path><path d="M185.53,193.75c-2.56,6.79-15.18,6.28-26,2.18s-15.78-10.24-13.21-17,12.39-7,23.22-2.92S188.1,187,185.53,193.75Z" fill="#fff"></path><path d="M174.42,199.45a44.34,44.34,0,0,1-15.1-3c-5.51-2.08-9.5-4.67-11.86-7.67a9.91,9.91,0,0,1-1.66-10c1.29-3.42,4.39-5.45,9-5.89,4.14-.39,9.32.53,15,2.66,12.38,4.69,18.79,11.93,16.32,18.45C184.56,197.83,180,199.45,174.42,199.45Zm-17.7-25.64q-1,0-1.86.09c-2.88.27-6.62,1.4-8.06,5.2a8.77,8.77,0,0,0,1.5,9c2.2,2.81,6.15,5.35,11.4,7.33,10.44,3.95,22.87,4.64,25.33-1.87,1.7-4.49-1.39-11.66-15.7-17.07A36.57,36.57,0,0,0,156.72,173.81Z" fill="#231f20"></path><path d="M147.37,177s6.51,3.64,8.17,5.41,2.87,2.2,4.75,3.31,9.05,3.53,11.37,5.41,2.2,2.54,5.41,2.87a49.44,49.44,0,0,1,7.47,1.62,11,11,0,0,0,1.32-2.51s-5,.56-6.15-.77a6.49,6.49,0,0,0-4.08-2.54,8.12,8.12,0,0,1-4.75-2.1c-1.1-1.21-3.64-3.53-6.62-3.64s-3.86-1.77-6-3.53-3.2-1.44-4.86-2.54a44.18,44.18,0,0,0-4.86-2.54S147.92,176.17,147.37,177Z" fill="#231f20"></path><path d="M184.54,196l-.13,0a49.3,49.3,0,0,0-7.39-1.6,6,6,0,0,1-4.37-1.87c-.34-.31-.74-.67-1.26-1.1-1.4-1.13-4.77-2.53-7.47-3.65a38.33,38.33,0,0,1-3.85-1.72L159,185.4a13.18,13.18,0,0,1-3.72-2.76c-1.59-1.7-8-5.29-8.07-5.33a.37.37,0,0,1-.2-.27.41.41,0,0,1,.07-.34c.55-.78,1.21-1.54,1.23-1.57a.42.42,0,0,1,.5-.11,44.28,44.28,0,0,1,4.92,2.57,7.34,7.34,0,0,0,1.79.84,8.61,8.61,0,0,1,3.1,1.73c.49.41.91.81,1.31,1.19,1.31,1.25,2.26,2.16,4.4,2.24,3.25.12,5.92,2.68,6.92,3.78a7.54,7.54,0,0,0,4.49,2A6.88,6.88,0,0,1,180,192c.7.84,3.91.83,5.77.62a.43.43,0,0,1,.36.14.42.42,0,0,1,.1.37,10.77,10.77,0,0,1-1.39,2.66A.43.43,0,0,1,184.54,196ZM148,176.81c1.48.85,6.4,3.71,7.86,5.26a12.22,12.22,0,0,0,3.51,2.59l1.14.64a39.87,39.87,0,0,0,3.74,1.67c2.76,1.14,6.18,2.57,7.68,3.78.54.43,1,.8,1.3,1.12,1.13,1,1.56,1.42,3.89,1.66a47.53,47.53,0,0,1,7.25,1.54,12.63,12.63,0,0,0,.88-1.53c-1.49.11-4.86.21-5.85-1a6,6,0,0,0-3.82-2.39c-.79-.11-3.5-.58-5-2.23-.92-1-3.39-3.4-6.33-3.51-2.46-.09-3.61-1.19-5-2.47-.38-.37-.79-.76-1.26-1.16a8,8,0,0,0-2.84-1.58,8.07,8.07,0,0,1-2-.93,40.83,40.83,0,0,0-4.51-2.37C148.53,176.13,148.26,176.46,148,176.81Z" fill="#231f20"></path><path d="M147.32,192.19a16.1,16.1,0,0,1-10.88,17.42C120.18,215,112,203,111.25,196.73s7-9.27,16.92-10.52S146.54,186,147.32,192.19Z" fill="#d1d3d4"></path><path d="M128.68,211.31a17.9,17.9,0,0,1-9.72-2.72c-4.92-3.11-7.63-8.3-8.08-11.82-.38-3.08,1.17-5.6,4.62-7.49,2.89-1.59,7.14-2.74,12.62-3.44,12.09-1.52,18.85.66,19.57,6.3A16.4,16.4,0,0,1,136.56,210,25.05,25.05,0,0,1,128.68,211.31ZM135,186.1a54.31,54.31,0,0,0-6.76.47c-5.39.68-9.55,1.81-12.36,3.35-3.16,1.73-4.59,4-4.24,6.76.42,3.35,3,8.31,7.74,11.29s10.56,3.41,17,1.3a15.67,15.67,0,0,0,10.63-17C146.36,187.48,141,186.1,135,186.1Z" fill="#231f20"></path><path d="M147.32,192.19c.79,6.23-9.08,11-19,12.22s-16.25-1.44-17-7.68,6.64-10.4,16.6-11.66S146.54,186,147.32,192.19Z" fill="#fff"></path><path d="M123.76,205.25a18.87,18.87,0,0,1-7.66-1.38,8.67,8.67,0,0,1-5.38-7.08c-.4-3.16,1.16-6,4.51-8.21,3-2,7.36-3.38,12.56-4,11.43-1.44,19.3,1.54,20.06,7.58.4,3.13-1.59,6.07-5.75,8.51a40.45,40.45,0,0,1-18.34,4.62Zm9.63-20a44.3,44.3,0,0,0-5.47.37c-5,.64-9.22,2-12.11,3.88-2.08,1.37-4.47,3.72-4,7.18a7.52,7.52,0,0,0,4.76,6.23c2.81,1.26,6.85,1.6,11.67,1a36.55,36.55,0,0,0,13.35-4.17c2.62-1.54,5.66-4.08,5.23-7.46S142.52,185.23,133.39,185.23Z" fill="#231f20"></path><path d="M111.27,194.79s6.47.15,8.45.83a14.51,14.51,0,0,0,5,.61c1.89.09,8.37-1,10.91-.47s2.72,1.05,5.3,0a42.44,42.44,0,0,1,6.38-1.79,9.1,9.1,0,0,0,0-2.45s-3.63,2.46-5,1.9a5.59,5.59,0,0,0-4.16-.29,7.07,7.07,0,0,1-4.48.32c-1.34-.49-4.23-1.23-6.55-.11s-3.68.22-6-.29-3,.2-4.75,0a37.25,37.25,0,0,0-4.75,0S111.38,194,111.27,194.79Z" fill="#231f20"></path><path d="M138.58,196.73a6.41,6.41,0,0,1-1.64-.28c-.38-.1-.83-.22-1.4-.33-1.54-.3-4.68,0-7.21.24-1.56.14-2.91.27-3.64.24l-1.12,0a11.43,11.43,0,0,1-4-.6c-1.91-.66-8.28-.81-8.35-.81A.36.36,0,0,1,111,195a.39.39,0,0,1-.09-.29c.11-.82.3-1.67.31-1.71a.37.37,0,0,1,.33-.28,36.86,36.86,0,0,1,4.81,0,6.75,6.75,0,0,0,1.72-.09,7.46,7.46,0,0,1,3.07.07c.54.11,1,.25,1.49.38,1.51.43,2.6.74,4.28-.07,2.54-1.22,5.62-.34,6.83.09a6.53,6.53,0,0,0,4.24-.32,5.91,5.91,0,0,1,4.42.3c.88.36,3.33-1,4.68-1.87a.37.37,0,0,1,.56.21,9.57,9.57,0,0,1,0,2.59.37.37,0,0,1-.3.32,42.32,42.32,0,0,0-6.31,1.77A6.72,6.72,0,0,1,138.58,196.73Zm-4.82-1.46a10.48,10.48,0,0,1,1.92.14c.59.11,1,.23,1.45.33a4.44,4.44,0,0,0,3.65-.31,41,41,0,0,1,6.18-1.76,10.66,10.66,0,0,0,0-1.53c-1.1.69-3.63,2.14-4.88,1.62a5.22,5.22,0,0,0-3.89-.28,7.65,7.65,0,0,1-4.74.32c-1.12-.4-4-1.23-6.27-.12a5.86,5.86,0,0,1-4.79.11c-.45-.12-.92-.26-1.44-.37a6.89,6.89,0,0,0-2.81-.06,7.12,7.12,0,0,1-1.9.09,35.42,35.42,0,0,0-4.41,0c0,.24-.12.59-.19,1,1.48,0,6.41.24,8.15.83a10.55,10.55,0,0,0,3.75.56l1.13,0c.68,0,2-.1,3.54-.24C130,195.46,132.1,195.27,133.76,195.27Z" fill="#231f20"></path><path d="M174.6,208.11c1,7.59-2.69,17.74-13.24,21.21-19.79,6.52-29.71-8.09-30.67-15.68s8.47-11.28,20.6-12.81S173.65,200.52,174.6,208.11Z" fill="#d1d3d4"></path><path d="M151.92,231.39a21.83,21.83,0,0,1-11.84-3.31c-6-3.78-9.29-10.11-9.83-14.39-.87-7,6.18-11.44,21-13.3s23,.8,23.81,7.66h0c1,8-2.8,18.16-13.54,21.69A30.5,30.5,0,0,1,151.92,231.39Zm7.65-30.68a68.25,68.25,0,0,0-8.23.56c-9.77,1.23-21.2,4.37-20.2,12.31.51,4.08,3.67,10.12,9.41,13.75s12.85,4.14,20.67,1.57c10.26-3.38,13.9-13.12,12.94-20.73h0C173.43,202.38,166.88,200.71,159.57,200.71Z" fill="#231f20"></path><path d="M174.6,208.11c1,7.59-11.06,13.35-23.18,14.88s-19.77-1.76-20.73-9.35,8.09-12.66,20.22-14.19S173.65,200.52,174.6,208.11Z" fill="#fff"></path><path d="M146,223.89c-9.31,0-15-3.58-15.82-10.19-.93-7.39,7-13,20.68-14.78,13.84-1.74,23.38,1.84,24.29,9.12h0c.48,3.76-1.93,7.3-6.94,10.25a48.89,48.89,0,0,1-22.21,5.6Zm11.66-24.36A55,55,0,0,0,151,200c-12.83,1.62-20.58,7-19.75,13.59.9,7.15,8.24,10.38,20.13,8.89a44.49,44.49,0,0,0,16.3-5.1c3.22-1.89,6.95-5,6.42-9.18S168.83,199.53,157.64,199.53Z" fill="#231f20"></path><path d="M130.72,211.28s7.88.18,10.29,1,3.77.64,6.06.75,10.19-1.18,13.27-.57,3.32,1.27,6.46,0a52.72,52.72,0,0,1,7.77-2.18,11.3,11.3,0,0,0,0-3s-4.43,3-6.11,2.31a6.89,6.89,0,0,0-5.07-.35,8.65,8.65,0,0,1-5.46.39c-1.62-.59-5.14-1.5-8-.13s-4.47.26-7.3-.35-3.7.24-5.78,0a47,47,0,0,0-5.79,0S130.86,210.29,130.72,211.28Z" fill="#231f20"></path><path d="M164,213.64a7.91,7.91,0,0,1-2-.34c-.47-.12-1-.26-1.71-.4-1.87-.37-5.7,0-8.77.29-1.91.17-3.55.33-4.44.29l-1.35,0a13.55,13.55,0,0,1-4.83-.73c-2.33-.8-10.08-1-10.16-1a.46.46,0,0,1-.43-.51c.14-1,.37-2,.38-2.08a.44.44,0,0,1,.4-.34,44.82,44.82,0,0,1,5.86,0,7.8,7.8,0,0,0,2.09-.11,9.32,9.32,0,0,1,3.74.08c.66.15,1.25.31,1.81.47,1.84.52,3.17.9,5.21-.08,3.09-1.49,6.84-.42,8.31.11a8,8,0,0,0,5.16-.39,7.23,7.23,0,0,1,5.39.36c1.06.43,4.05-1.16,5.69-2.27a.44.44,0,0,1,.4-.05.47.47,0,0,1,.28.3,11.29,11.29,0,0,1,0,3.16.45.45,0,0,1-.36.38,52.37,52.37,0,0,0-7.68,2.15A8,8,0,0,1,164,213.64Zm-5.86-1.78a12.92,12.92,0,0,1,2.33.17c.72.14,1.28.28,1.76.41,1.57.4,2.15.55,4.45-.38a50.57,50.57,0,0,1,7.52-2.14,13.81,13.81,0,0,0,.06-1.86c-1.33.84-4.42,2.59-5.93,2a6.38,6.38,0,0,0-4.74-.34c-.79.29-3.55,1.18-5.77.38-1.36-.49-4.84-1.49-7.63-.14-2.34,1.13-4,.67-5.83.14-.55-.16-1.12-.32-1.76-.46a8.28,8.28,0,0,0-3.42-.07,8.85,8.85,0,0,1-2.31.11,43,43,0,0,0-5.37,0c-.06.29-.15.73-.22,1.19,1.79.06,7.8.29,9.92,1a13,13,0,0,0,4.56.68l1.37,0a40.5,40.5,0,0,0,4.32-.29C153.56,212.1,156.08,211.86,158.1,211.86Z" fill="#231f20"></path><path d="M221.94,213.86c-.07,7.65-5,17.21-16,19.24-20.49,3.82-28.36-12-28.29-19.65s9.9-10,22.12-9.93S222,206.2,221.94,213.86Z" fill="#d1d3d4"></path><path d="M200,234.13A22.58,22.58,0,0,1,185.05,229c-5.42-4.55-7.84-11.26-7.81-15.57.07-7,7.67-10.49,22.57-10.37,6.75.06,12.08.86,15.84,2.37,4.51,1.81,6.77,4.64,6.74,8.41-.08,8-5.22,17.61-16.33,19.68A33.09,33.09,0,0,1,200,234.13ZM199,204c-9.67,0-20.82,1.7-20.9,9.5,0,4.11,2.29,10.52,7.49,14.88s12.18,5.83,20.28,4.33c10.62-2,15.53-11.14,15.6-18.82,0-3.37-2.05-5.92-6.18-7.58-3.66-1.47-8.88-2.24-15.51-2.3Z" fill="#231f20"></path><path d="M221.94,213.86c-.07,7.65-12.74,11.75-25,11.64s-19.36-4.39-19.29-12.05S187.4,202,199.62,202.1,222,206.2,221.94,213.86Z" fill="#fff"></path><path d="M197.45,226H197c-6.22-.05-11.1-1.16-14.53-3.27a10.45,10.45,0,0,1-5.29-9.31c.07-7.45,8.67-12,22.47-11.88,6.31.06,12,1.16,16,3.1,4.52,2.19,6.89,5.37,6.86,9.19C222.4,221.81,209.62,226,197.45,226Zm1.64-23.39c-12.64,0-20.81,4.22-20.87,10.82a9.3,9.3,0,0,0,4.78,8.39c3.26,2,8,3.06,14,3.11,11.76.11,24.36-3.75,24.43-11.11,0-4.27-3.38-6.82-6.25-8.22-3.87-1.87-9.39-2.94-15.55-3Z" fill="#231f20"></path><path d="M178,211.12s7.77,1.24,10.05,2.38,3.65,1.14,5.91,1.55,10.25.2,13.23,1.21,3.11,1.71,6.4.88a52.23,52.23,0,0,1,8-1.12,11.79,11.79,0,0,0,.4-3s-4.79,2.38-6.37,1.47a6.83,6.83,0,0,0-5-1c-3.45.77-6.67-1.47-10.21-1.75-5.34-.42-10.91-.63-16.06-1.87a46.24,46.24,0,0,0-5.74-.74S178.3,210.16,178,211.12Z" fill="#231f20"></path><path d="M211.28,218a6.24,6.24,0,0,1-2.55-.64c-.45-.18-1-.4-1.64-.62-1.81-.62-5.65-.77-8.73-.9a42.94,42.94,0,0,1-4.44-.3c-.48-.09-.92-.16-1.34-.22a13.9,13.9,0,0,1-4.69-1.37c-2.19-1.1-9.85-2.33-9.92-2.34a.44.44,0,0,1-.31-.2.41.41,0,0,1,0-.36c.26-1,.63-2,.65-2a.45.45,0,0,1,.45-.28,46.06,46.06,0,0,1,5.8.75,82,82,0,0,0,13.18,1.65l2.81.21a19.38,19.38,0,0,1,4.24,1c2,.62,3.89,1.21,5.84.77a7.21,7.21,0,0,1,5.29,1.08c1,.57,4.18-.61,5.95-1.49a.47.47,0,0,1,.4,0,.45.45,0,0,1,.24.34,11.74,11.74,0,0,1-.41,3.13.46.46,0,0,1-.41.33,51.92,51.92,0,0,0-7.9,1.11A10,10,0,0,1,211.28,218Zm-32.68-7.19c1.77.3,7.69,1.34,9.69,2.34a12.89,12.89,0,0,0,4.43,1.29c.42.07.87.13,1.36.22a39.85,39.85,0,0,0,4.31.29c3.15.13,7.06.29,9,.94.69.24,1.23.46,1.69.64,1.5.61,2.06.84,4.46.22a50.54,50.54,0,0,1,7.74-1.11,14.49,14.49,0,0,0,.31-1.83c-1.43.65-4.72,2-6.14,1.16a6.38,6.38,0,0,0-4.65-1c-2.19.49-4.28-.16-6.31-.79a18.23,18.23,0,0,0-4-.94c-.93-.08-1.87-.14-2.81-.21a84.36,84.36,0,0,1-13.32-1.67,41.65,41.65,0,0,0-5.32-.71C178.88,209.89,178.74,210.31,178.6,210.76Z" fill="#231f20"></path></g></svg>