<svg xmlns="http://www.w3.org/2000/svg" xmlns:xlink="http://www.w3.org/1999/xlink" viewBox="0 0 400 300" width="406" height="306" class="illustration styles_illustrationTablet__1DWOa"><defs><linearGradient id="linear-gradient" x1="165.96" y1="106.81" x2="150.01" y2="126.74" gradientUnits="userSpaceOnUse"><stop offset="0" stop-color="#d4a397"></stop><stop offset="1" stop-color="#fff"></stop></linearGradient><linearGradient id="linear-gradient-2" x1="254.22" y1="149.36" x2="225.65" y2="185.08" xlink:href="#linear-gradient"></linearGradient><linearGradient id="linear-gradient-3" x1="102.46" y1="167.19" x2="79.89" y2="195.4" xlink:href="#linear-gradient"></linearGradient><linearGradient id="linear-gradient-4" x1="91.71" y1="169.47" x2="82.8" y2="184.66" xlink:href="#linear-gradient"></linearGradient><linearGradient id="linear-gradient-5" x1="210.85" y1="237.55" x2="189.11" y2="264.73" xlink:href="#linear-gradient"></linearGradient></defs><title>PP</title><g style="isolation: isolate;"><g id="Layer_2" data-name="Layer 2"><path d="M193.54,276.54,21,174.59c-5.49-3.08-10.2-8.15-4.85-11.46L189.32,63.35c2.6-1.61,6.54-2.66,9.18-1.13L379.57,167.31c5.49,3.19,6.48,12.1,1,15.29L216.28,276.38A22.94,22.94,0,0,1,193.54,276.54Z" fill="#ef7816"></path><path d="M160.95,104.19l-30.18,16.53s1,15.18,19.31,12.83l33-18.08" fill="url(#linear-gradient)" style="mix-blend-mode: multiply;"></path><polyline points="199.94 136.96 164.58 157.68 237.46 221.49 309.24 184.34" fill="url(#linear-gradient-2)" style="mix-blend-mode: multiply;"></polyline><polyline points="59.13 156.59 28.6 175.66 100.35 218.05 146.85 195.56" fill="url(#linear-gradient-3)" style="mix-blend-mode: multiply;"></polyline><ellipse cx="108.53" cy="170" rx="60.01" ry="33.21" fill="#68e1fd"></ellipse><ellipse cx="108.53" cy="170" rx="60.01" ry="33.21" fill="#093e3e" opacity="0.29"></ellipse><ellipse cx="108.53" cy="166.38" rx="60.01" ry="33.21" fill="#68e1fd"></ellipse><ellipse cx="106.72" cy="170.24" rx="35.87" ry="19.23" fill="#093e3e" opacity="0.29"></ellipse><polyline points="87.66 146.75 48.52 170 90.92 198.14 129.55 178.07" fill="url(#linear-gradient-4)" style="mix-blend-mode: multiply;"></polyline><ellipse cx="108.52" cy="156.64" rx="38.09" ry="26.17" fill="#de764d"></ellipse><path d="M71.2,152.55c0,2.22-.07,5.28,2.41,6.2,1.34.5,3.13.1,4.48-.12,2.62-.42,5.49-1.13,8.08-.15,5.44,2.07,6,17.35,14,11,2.12-1.7,3.1-4.72,5.68-5.88s5.47.26,7.28,2.22c1.18,1.27,2,2.93,3.51,3.91,2.95,2,5.84,0,7.08-2.75s2-5.8,5.53-6.59c4.69-1.05,9.34,3.51,13.65-.2a11.46,11.46,0,0,0,3.53-6.91c-2.25-13-18.32-23-37.81-23C89.7,130.22,74,139.69,71,152.11A.61.61,0,0,1,71.2,152.55Z" fill="#fff6e1"></path><ellipse cx="108.52" cy="151.94" rx="14.61" ry="8.88" fill="#c55644"></ellipse><path d="M96,156.49a27.13,27.13,0,0,1,25.7-.68s-3.43,5.39-13.15,5S96,156.49,96,156.49Z" fill="#9e3226"></path><path d="M86.56,143.72a1.29,1.29,0,0,0-1.8,0L83,145.42a1.28,1.28,0,1,0,1.8,1.8l1.71-1.71A1.3,1.3,0,0,0,86.56,143.72Z" fill="#e24040"></path><path d="M98.64,137l-1.31-1.31a1.28,1.28,0,1,0-1.8,1.8l1.31,1.31a1.28,1.28,0,1,0,1.8-1.8Z" fill="#e24040"></path><path d="M126.6,137.28a1.29,1.29,0,0,0-1.8,0l-1.44,1.44a1.28,1.28,0,1,0,1.8,1.8l1.44-1.44A1.3,1.3,0,0,0,126.6,137.28Z" fill="#e24040"></path><path d="M116,135,114.79,134a1.31,1.31,0,0,0-1.8,0,1.29,1.29,0,0,0,0,1.8l1.18,1.05a1.31,1.31,0,0,0,1.8,0A1.29,1.29,0,0,0,116,135Z" fill="#e24040"></path><path d="M136.6,149.91h-2a1.28,1.28,0,0,0,0,2.55h2a1.28,1.28,0,1,0,0-2.55Z" fill="#e24040"></path><path d="M120.16,162.37l-.79-.66a1.31,1.31,0,0,0-1.8,0,1.29,1.29,0,0,0,0,1.8l.79.66a1.31,1.31,0,0,0,1.8,0A1.29,1.29,0,0,0,120.16,162.37Z" fill="#e24040"></path><path d="M97.85,160.72a1.3,1.3,0,0,0-1.75.46c.07-.11-.15.17-.15.18s-.3.24-.18.15a1.31,1.31,0,0,0-.46,1.75,1.29,1.29,0,0,0,1.75.46,4.82,4.82,0,0,0,1.25-1.25A1.29,1.29,0,0,0,97.85,160.72Z" fill="#e24040"></path><path d="M80.79,152.8h-2.1a1.28,1.28,0,1,0,0,2.55h2.1a1.28,1.28,0,0,0,0-2.55Z" fill="#e24040"></path><path d="M132,142.29a1.28,1.28,0,0,0,0,2.55A1.28,1.28,0,0,0,132,142.29Z" fill="#6ab55b"></path><path d="M108.5,136.39a1.28,1.28,0,0,0,0,2.55A1.28,1.28,0,0,0,108.5,136.39Z" fill="#6ab55b"></path><path d="M96.95,142.56a1.28,1.28,0,0,0,0,2.55A1.28,1.28,0,0,0,96.95,142.56Z" fill="#6ab55b"></path><path d="M88.8,136.65a1.28,1.28,0,0,0,0,2.55A1.28,1.28,0,0,0,88.8,136.65Z" fill="#6ab55b"></path><path d="M79.22,145.44a1.28,1.28,0,0,0,0,2.55A1.28,1.28,0,0,0,79.22,145.44Z" fill="#6ab55b"></path><path d="M89.07,149.78a1.28,1.28,0,0,0,0,2.55A1.28,1.28,0,0,0,89.07,149.78Z" fill="#6ab55b"></path><path d="M127.15,151.22a1.28,1.28,0,0,0,0,2.55A1.28,1.28,0,0,0,127.15,151.22Z" fill="#6ab55b"></path><path d="M137.91,154.11a1.28,1.28,0,0,0,0,2.55A1.28,1.28,0,0,0,137.91,154.11Z" fill="#6ab55b"></path><path d="M125.31,143a1.28,1.28,0,0,0,0,2.55A1.28,1.28,0,0,0,125.31,143Z" fill="#6ab55b"></path><path d="M172.45,54.21c-1,0-12.42.32-14-7.32s-.92-11.86-6.37-12.1c-6.74-.29-6.37,10.66-5.41,15.84s7.43,12.18,18.52,13.14,14.58,0,14.58,0" fill="#244b0c"></path><path d="M147.91,81s-1.34,38,24.64,37.95C194.15,119,195.2,81,195.2,81" fill="#e2cfc9"></path><path d="M156.19,81h-8.28s-1.34,38,24.64,37.94c.55,0,1.08,0,1.6-.08C160.79,112.26,154.28,95.95,156.19,81Z" fill="#af9891"></path><ellipse cx="171.55" cy="80.43" rx="23.64" ry="8.9" fill="#093e3e"></ellipse><path d="M164.58,78.22v-43s-.07-12.42,7-14,7,15.6,7,15.6V78.22S173.79,82.81,164.58,78.22Z" fill="#55823d"></path><path d="M174.44,80.31V57.1s-.05-6.71,5.29-7.57S185.08,58,185.08,58V80.31S181.44,82.79,174.44,80.31Z" fill="#4c6338"></path><ellipse cx="261.06" cy="152.14" rx="78.97" ry="40.63" fill="#68e1fd"></ellipse><ellipse cx="261.06" cy="152.14" rx="78.97" ry="40.63" fill="#093e3e" opacity="0.29"></ellipse><ellipse cx="261.06" cy="147.41" rx="78.97" ry="40.63" fill="#68e1fd"></ellipse><ellipse cx="262.3" cy="147.41" rx="53.41" ry="25.18" fill="#093e3e" opacity="0.29"></ellipse><path d="M242.27,142.09l2.49.47-.65-5.26a47.57,47.57,0,0,1-9.91-3,110.49,110.49,0,0,1-21.38-8.68,43,43,0,0,1-4.46-2.38c-6.07-1.61-11.61-8.05-10.48-.22.75,5.14,3.44,7.76,4.75,9.59q8.48,2.43,17,4.53C227.25,138.58,234.77,140.29,242.27,142.09Z" fill="#99ce45"></path><path d="M245.35,147.24l-.3-2.42-2.65-.64-41.91-7.58c-4.53,1.34-12.48.59-8.33,5,3.52,3.7,9,3,10.52,4.42q5.82.66,11.67,1C224.66,146.44,235,146.8,245.35,147.24Z" fill="#99ce45"></path><path d="M244.24,151.74l1.64-.21-.28-2.22a.91.91,0,0,1-.83.52l-44.06,1c-3.35,3.32-7.44,3.47-1,4.75,4.46.89,7.36.79,8.7,1.79l35-5.91A1,1,0,0,1,244.24,151.74Z" fill="#99ce45"></path><path d="M243.78,134.57l-.11-.91a.85.85,0,0,1-1.32,0c-5.08-6-11.65-10.74-15.92-17.33a6.79,6.79,0,0,1-1.78-.51c-6.23-2.57-8.17-5.09-10.8-.94-1.75,2.77.17,6-.35,7.63,9,5,18.7,8.5,28.5,11.74Z" fill="#99ce45"></path><path d="M243,128.5s-1.09-16.29-8.71-17c-3.71-.34-4.62,1.28-5.3,2.72,4.76,5.9,9.6,11.73,14.42,17.58Z" fill="#99ce45"></path><path d="M245.83,155.27l.48-.29,0-.4-.67.47A1.05,1.05,0,0,1,245.83,155.27Z" fill="#99ce45"></path><path d="M243.94,153.75c-.76.08-1.51.17-2.27.24a139.81,139.81,0,0,0-33.52,13.16c.31,1.27,1.5,1.53,4.15,1.14,4.76-.69,10.42-6.94,12.07-3.28,3.26-2.26,7-3.73,10.5-5.66C238,157.62,241,155.74,243.94,153.75Z" fill="#99ce45"></path><path d="M209.17,163.41a1,1,0,0,1-.67,0q-.1.44-.17.84c.52-.34,1-.68,1.56-1Z" fill="#99ce45"></path><path d="M242.34,133.62a.85.85,0,0,0,1.32,0l-.23-1.84c-4.83-5.84-9.67-11.68-14.42-17.58-.55,1.18-1,2.24-2.59,2C230.69,122.87,237.26,127.62,242.34,133.62Z" fill="#88b72c"></path><path d="M234.21,134.3a47.57,47.57,0,0,0,9.91,3l-.34-2.73L242,134.2c-9.8-3.23-19.5-6.73-28.5-11.74-.26.83-1.12,1.27-3.35,1.1a10.11,10.11,0,0,1-1.78-.32,43,43,0,0,0,4.46,2.38A110.49,110.49,0,0,0,234.21,134.3Z" fill="#88b72c"></path><path d="M245,144.82l-.28-2.26-2.49-.47c-7.5-1.8-15-3.52-22.6-5q-8.56-2.1-17-4.53c.88,1.23,1.13,2.1-.28,3.14a6.11,6.11,0,0,1-1.88.85l41.91,7.58Z" fill="#88b72c"></path><path d="M245.61,149.31l-.26-2.07c-10.34-.44-20.69-.8-31-.27q-5.85-.32-11.67-1c.56.53.56,1.35-.32,2.81a10.56,10.56,0,0,1-1.64,2.07l44.06-1A.91.91,0,0,0,245.61,149.31Z" fill="#88b72c"></path><path d="M246.39,155.61l-.08-.63-.48.29a1.05,1.05,0,0,0-.24-.22l.67-.47-.38-3.05-1.64.21a1,1,0,0,0-.86-.25l-35,5.91c.91.68,1.1,1.88.52,4.28-.15.62-.28,1.17-.39,1.7a1,1,0,0,0,.67,0l.71-.2c-.52.33-1,.67-1.56,1a7.52,7.52,0,0,0-.18,2.92A139.81,139.81,0,0,1,241.67,154c.76-.07,1.51-.16,2.27-.24-2.95,2-6,3.87-9.08,5.6-3.46,1.92-7.24,3.4-10.5,5.66l.07.16C226,169.2,246.39,155.61,246.39,155.61Z" fill="#88b72c"></path><path d="M312,143.11a16.76,16.76,0,0,0,1.42-1.2,7.41,7.41,0,0,0-.4-11.05c-3.25-2.89-7-2.84-11.33-3.18l-.47,0c-.24-.88-.24-2.16-.54-2.83a10.35,10.35,0,0,0-4-4.47c-3.88-2.51-8.82-2.81-13.44-1.83-1.65.35-4.79,2.15-6.42,1.58s-3.64-4.07-5.33-5.2c-7.56-5.07-18.5-2.36-22.94,4.61a17.87,17.87,0,0,0-2.19,6.43c-.63,3-1.75,3.12-4.87,4.4-4.73,1.93-8.14,5.24-8.24,9.92-.12,5.85,3.61,9.42,8.68,11.53.45.26.91.5,1.39.74a25.09,25.09,0,0,0,6.51,6.63c5.7,3.94,12.71,4.72,19.77,5.42,11.19,1.11,29.07,3.5,37.1-5.11,7.39-2.82,12.8-10.13,5.61-16.11Z" fill="#f8f5e6"></path><ellipse cx="275.73" cy="136.93" rx="20.61" ry="10.77" fill="#f19e16"></ellipse><path d="M282.21,129.08c-4.1,0-4.1,6.37,0,6.37S286.32,129.08,282.21,129.08Z" fill="#f9f6bf"></path><path d="M274.94,144.76c-7.35-.59-17.69-4.19-18.53-11.56a6.43,6.43,0,0,0-1.29,3.73c0,5.95,9.23,10.77,20.61,10.77,9.27,0,17.1-3.2,19.69-7.59C290,144.35,282.22,145.34,274.94,144.76Z" fill="#db8303"></path><ellipse cx="248.51" cy="160.45" rx="18.43" ry="8.49" fill="#d84027"></ellipse><ellipse cx="248.51" cy="158.01" rx="18.43" ry="8.49" fill="#ea6453"></ellipse><path d="M235.74,158.73s4.81,4.93,14.68,4.74,12.66-7.35,12.66-7.35Z" fill="#d84027"></path><path d="M234.53,157.34l27.34-3s-9.56-2.64-16.21-2.36S234.53,157.34,234.53,157.34Z" fill="#d84027"></path><path d="M237,158.59a.5.5,0,0,0,0,1A.5.5,0,0,0,237,158.59Z" fill="#f9b2ac"></path><path d="M244.2,162a.5.5,0,0,0,0,1A.5.5,0,0,0,244.2,162Z" fill="#f9b2ac"></path><path d="M249.36,161.79a.5.5,0,0,0,0,1A.5.5,0,0,0,249.36,161.79Z" fill="#f9b2ac"></path><path d="M245,158.28a.5.5,0,0,0,0,1A.5.5,0,0,0,245,158.28Z" fill="#f9b2ac"></path><path d="M240.08,155.08a.5.5,0,0,0,0,1A.5.5,0,0,0,240.08,155.08Z" fill="#f9b2ac"></path><path d="M246.06,152.19a.5.5,0,0,0,0,1A.5.5,0,0,0,246.06,152.19Z" fill="#f9b2ac"></path><path d="M245.34,153.53a.5.5,0,0,0,0,1A.5.5,0,0,0,245.34,153.53Z" fill="#f9b2ac"></path><path d="M239.77,152.7a.5.5,0,0,0,0,1A.5.5,0,0,0,239.77,152.7Z" fill="#f9b2ac"></path><path d="M234.3,156.52a.5.5,0,0,0,0,1A.5.5,0,0,0,234.3,156.52Z" fill="#f9b2ac"></path><path d="M254.14,161.79a.5.5,0,0,0,0,1A.5.5,0,0,0,254.14,161.79Z" fill="#f9b2ac"></path><path d="M258.47,158a.5.5,0,0,0,0,1A.5.5,0,0,0,258.47,158Z" fill="#f9b2ac"></path><path d="M251.15,159.11a.5.5,0,0,0,0,1A.5.5,0,0,0,251.15,159.11Z" fill="#f9b2ac"></path><path d="M253,153.23a.5.5,0,0,0,0,1A.5.5,0,0,0,253,153.23Z" fill="#f9b2ac"></path><path d="M258.37,154.46a.5.5,0,0,0,0,1A.5.5,0,0,0,258.37,154.46Z" fill="#f9b2ac"></path><path d="M187.25,242.33l-24.37,14.18s1.36,20.7,26.33,17.49l45-24.64" fill="url(#linear-gradient-5)" style="mix-blend-mode: multiply;"></path><ellipse cx="214.38" cy="240.21" rx="27.13" ry="13.41" fill="#68e1fd"></ellipse><path d="M241.5,204.49V241s-20.2,18.69-54.26.3V204.49" fill="#68e1fd"></path><path d="M191.31,217.51s-4.5-6.88-8.73-2.91-.53,17.72,11.9,19v5.55s-15.6-2.12-17.72-16.13,7.93-16.17,13-12.32" fill="#68e1fd"></path><ellipse cx="214.38" cy="204.64" rx="27.13" ry="13.41" fill="#68e1fd"></ellipse><path d="M214.38,198.23c12.53,0,23.08,4.2,26.19,9.91a7.26,7.26,0,0,0,.94-3.5c0-7.41-12.15-13.41-27.13-13.41s-27.13,6-27.13,13.41a7.26,7.26,0,0,0,.94,3.5C191.3,202.43,201.84,198.23,214.38,198.23Z" fill="#093e3e" opacity="0.29"></path><path d="M214.38,218.05c12.53,0,23.08-4.2,26.19-9.91-3.11-5.71-13.66-9.91-26.19-9.91s-23.08,4.2-26.19,9.91C191.3,213.85,201.84,218.05,214.38,218.05Z" fill="#913b24"></path></g></g></svg>